<?xml version="1.0" encoding="utf-8"?>
<!-- Generator: Adobe Illustrator 27.7.0, SVG Export Plug-In . SVG Version: 6.00 Build 0)  -->
<svg version="1.1" id="Layer_1" xmlns="http://www.w3.org/2000/svg" xmlns:xlink="http://www.w3.org/1999/xlink" x="0px" y="0px"
	 viewBox="0 0 298 148" style="enable-background:new 0 0 298 148;" xml:space="preserve">
<style type="text/css">
	.st0{fill:#FFFFFF;}
	.st1{fill:#FFFFFF;fill-opacity:0.2;}
	.st2{fill:none;}
	.st3{font-family:'Lato-Light';}
	.st4{font-size:32px;}
</style>
<path class="st0" d="M208.3,58.4h-2.5v-1.4h6.5v1.4h-2.5v8.2h-1.5L208.3,58.4L208.3,58.4z M219.4,62.5h-4.2v4.1h-1.5v-9.6h1.5v4.1
	h4.2v-4.1h1.5v9.6h-1.5C219.4,66.7,219.4,62.5,219.4,62.5z M222.8,57.1h5.8v1.4h-4.3v2.8h4.2v1.3h-4.2v2.8h4.3v1.4h-5.8V57.1z
	 M238.5,61.4h4.9V62c0,0.7-0.1,1.3-0.3,1.9c-0.2,0.6-0.6,1.1-1,1.5c-0.4,0.5-0.9,0.8-1.5,1c-0.6,0.3-1.2,0.4-1.9,0.4s-1.4-0.1-2-0.4
	c-0.6-0.3-1.1-0.6-1.5-1.1c-0.4-0.5-0.8-1-1-1.6c-0.2-0.6-0.3-1.3-0.3-1.9s0.1-1.3,0.3-1.9c0.2-0.6,0.6-1.1,1-1.6
	c0.4-0.5,0.9-0.8,1.5-1.1c0.6-0.3,1.3-0.4,2-0.4c0.5,0,1,0.1,1.4,0.2s0.8,0.3,1.1,0.5c0.3,0.2,0.6,0.4,0.8,0.7
	c0.3,0.3,0.5,0.5,0.6,0.8l-1.4,0.7c-0.3-0.4-0.6-0.7-1-0.9c-0.4-0.3-0.9-0.4-1.5-0.4c-0.5,0-0.9,0.1-1.3,0.3c-0.4,0.2-0.7,0.4-1,0.8
	c-0.3,0.3-0.5,0.7-0.7,1.1c-0.2,0.4-0.2,0.9-0.2,1.4s0.1,0.9,0.2,1.4c0.2,0.4,0.4,0.8,0.7,1.1c0.3,0.3,0.6,0.6,1,0.8
	c0.4,0.2,0.8,0.3,1.3,0.3c0.4,0,0.8-0.1,1.2-0.2c0.4-0.1,0.7-0.3,1-0.6s0.5-0.5,0.6-0.9c0.2-0.3,0.3-0.7,0.3-1.1h-3.2V61.4z
	 M245.8,64.1c0,0.3,0.1,0.6,0.2,0.8c0.1,0.3,0.3,0.5,0.6,0.6s0.6,0.2,1,0.2c0.3,0,0.6,0,0.9-0.1c0.3-0.1,0.5-0.2,0.6-0.3
	c0.2-0.1,0.3-0.3,0.4-0.4l0.7,0.9c-0.2,0.2-0.3,0.4-0.6,0.5c-0.2,0.2-0.5,0.3-0.8,0.4c-0.3,0.1-0.8,0.1-1.3,0.1
	c-0.7,0-1.2-0.1-1.7-0.4c-0.5-0.3-0.9-0.6-1.1-1.1c-0.3-0.5-0.4-1-0.4-1.7c0-0.6,0.1-1.1,0.4-1.6c0.3-0.5,0.6-0.8,1-1.1
	c0.5-0.3,1-0.4,1.7-0.4c0.6,0,1.1,0.1,1.6,0.4c0.4,0.3,0.8,0.6,1,1c0.3,0.5,0.4,1,0.4,1.6c0,0,0,0.1,0,0.3c0,0.1,0,0.2,0,0.3
	L245.8,64.1L245.8,64.1z M249,62.9c0-0.2-0.1-0.3-0.2-0.5c-0.1-0.2-0.3-0.4-0.5-0.5s-0.5-0.2-0.9-0.2c-0.4,0-0.7,0.1-0.9,0.2
	c-0.2,0.1-0.4,0.3-0.5,0.5c-0.1,0.2-0.2,0.4-0.2,0.5C245.9,62.9,249,62.9,249,62.9z M255.4,60.5c0.4,0,0.8,0.1,1.2,0.3
	c0.4,0.2,0.7,0.4,0.9,0.8c0.3,0.4,0.4,0.8,0.4,1.4v3.7h-1.6v-3.4c0-0.5-0.1-0.9-0.4-1.2c-0.3-0.3-0.6-0.4-1-0.4
	c-0.3,0-0.5,0.1-0.8,0.2c-0.3,0.2-0.4,0.4-0.6,0.6c-0.2,0.3-0.2,0.5-0.2,0.9v3.3h-1.5v-6h1.5v1c0-0.2,0.2-0.3,0.3-0.5
	c0.2-0.2,0.4-0.3,0.7-0.5C254.7,60.6,255,60.5,255.4,60.5z M211.7,72.3c0.9,0,1.6,0.1,2.3,0.3c0.6,0.2,1.2,0.4,1.5,0.6
	s0.6,0.4,0.7,0.4l-1.2,1.9c-0.1-0.1-0.3-0.2-0.6-0.4c-0.3-0.2-0.6-0.3-1.1-0.5c-0.4-0.1-0.9-0.2-1.4-0.2c-0.8,0-1.4,0.2-1.8,0.5
	c-0.5,0.3-0.7,0.7-0.7,1.3c0,0.4,0.1,0.7,0.4,1c0.3,0.3,0.6,0.5,1,0.8c0.5,0.3,1,0.5,1.6,0.8c0.5,0.2,1,0.5,1.5,0.8
	c0.5,0.3,1,0.6,1.3,1c0.4,0.4,0.7,0.8,1,1.3c0.3,0.5,0.4,1.1,0.4,1.7c0,0.7-0.1,1.3-0.4,1.8c-0.3,0.5-0.7,1-1.1,1.3
	c-0.5,0.4-1,0.6-1.7,0.8c-0.6,0.2-1.3,0.3-2,0.3c-1,0-1.8-0.1-2.6-0.3c-0.8-0.2-1.4-0.5-1.8-0.7s-0.7-0.4-0.8-0.5l1.3-2
	c0.1,0.1,0.3,0.2,0.5,0.3c0.3,0.1,0.5,0.3,0.9,0.5s0.8,0.3,1.2,0.4c0.4,0.1,0.9,0.2,1.4,0.2c0.9,0,1.6-0.2,2.1-0.6
	c0.5-0.4,0.7-0.9,0.7-1.5c0-0.5-0.2-0.9-0.5-1.2c-0.3-0.4-0.7-0.7-1.2-1c-0.5-0.3-1.1-0.6-1.8-0.8c-0.7-0.3-1.3-0.6-1.9-1
	c-0.6-0.4-1-0.8-1.4-1.3c-0.3-0.5-0.5-1.2-0.5-1.9c0-0.8,0.2-1.4,0.6-2c0.4-0.6,1-1,1.7-1.3C210.1,72.4,210.8,72.3,211.7,72.3z
	 M229.9,88.1c0.4,0,0.8,0,1.1-0.1c0.3-0.1,0.6-0.2,0.8-0.3s0.3-0.2,0.3-0.2l0.9,1.6c-0.2,0.3-0.6,0.5-1.1,0.8
	c-0.5,0.3-1.2,0.4-2.1,0.4c-0.5,0-1-0.1-1.4-0.2c-0.4-0.1-0.7-0.3-1.1-0.4c-0.3-0.2-0.7-0.3-1-0.4s-0.8-0.2-1.3-0.2
	c-0.5,0-0.9,0.1-1.2,0.2c-0.4,0.2-0.6,0.3-0.8,0.5c-0.2,0.2-0.3,0.3-0.3,0.3l-1.1-1.3c0.5-0.5,1-0.8,1.7-1.1
	c0.7-0.3,1.4-0.4,2.3-0.4c0.6,0,1.1,0.1,1.6,0.2s0.9,0.3,1.3,0.4C228.9,88,229.4,88.1,229.9,88.1z M220.7,80c0,1,0.2,2,0.6,2.8
	c0.4,0.8,1,1.5,1.8,2c0.8,0.5,1.6,0.7,2.6,0.7c1,0,1.9-0.3,2.6-0.7c0.8-0.5,1.3-1.1,1.8-2c0.4-0.8,0.6-1.8,0.6-2.8
	c0-1-0.2-1.9-0.6-2.8c-0.4-0.8-1-1.5-1.8-2c-0.8-0.5-1.6-0.7-2.6-0.7c-1,0-1.8,0.3-2.6,0.7c-0.8,0.5-1.3,1.1-1.8,2
	C221,78,220.7,78.9,220.7,80z M218.3,80c0-1.1,0.2-2.1,0.6-3c0.4-0.9,0.9-1.8,1.6-2.5c0.7-0.7,1.5-1.3,2.4-1.6
	c0.9-0.4,1.9-0.6,3-0.6c1.1,0,2.1,0.2,3,0.6c0.9,0.4,1.7,0.9,2.4,1.6c0.7,0.7,1.2,1.5,1.6,2.5c0.4,0.9,0.5,1.9,0.5,3
	c0,1.1-0.2,2.1-0.5,3.1c-0.4,0.9-0.9,1.8-1.5,2.5c-0.7,0.7-1.5,1.3-2.4,1.6c-0.9,0.4-1.9,0.6-3,0.6s-2.1-0.2-3-0.6
	c-0.9-0.4-1.7-0.9-2.4-1.6c-0.7-0.7-1.2-1.5-1.5-2.5C218.5,82.1,218.3,81.1,218.3,80z M244.2,72.5h2.4v9.2c0,1.2-0.3,2.3-0.7,3.2
	c-0.5,0.9-1.2,1.6-2,2.1c-0.9,0.5-1.9,0.7-3,0.7c-1.1,0-2.1-0.2-3-0.7c-0.9-0.5-1.5-1.2-2.1-2.1c-0.5-0.9-0.7-2-0.7-3.2v-9.2h2.4
	v9.1c0,0.8,0.1,1.5,0.4,2.1c0.3,0.6,0.7,1,1.2,1.3c0.5,0.3,1.1,0.5,1.8,0.5c0.7,0,1.3-0.2,1.8-0.5c0.5-0.3,0.9-0.8,1.2-1.3
	c0.3-0.6,0.4-1.3,0.4-2.1L244.2,72.5L244.2,72.5z M253.2,72.5h2.4l5.6,14.9h-2.5l-1.2-3.4h-6.1l-1.3,3.4h-2.5L253.2,72.5z
	 M252.1,81.9h4.6l-2.3-6.5h0L252.1,81.9z M262.7,72.5h3.8c1.6,0,2.9,0.3,3.9,1s1.8,1.5,2.3,2.6c0.5,1.1,0.8,2.4,0.8,3.9
	s-0.3,2.7-0.8,3.9c-0.5,1.1-1.3,2-2.3,2.6c-1,0.6-2.3,1-3.9,1h-3.8V72.5L262.7,72.5z M265,74.7v10.6h1.2c1.1,0,2-0.2,2.6-0.7
	c0.7-0.5,1.2-1.1,1.5-1.9s0.5-1.7,0.5-2.7c0-1-0.2-1.9-0.5-2.7c-0.3-0.8-0.8-1.4-1.5-1.9c-0.7-0.5-1.6-0.7-2.6-0.7L265,74.7
	L265,74.7z"/>
<path class="st0" d="M262.4,57.1h1.6l3.6,9.6H266l-0.8-2.2h-4l-0.8,2.2h-1.6L262.4,57.1z M261.7,63.1h3l-1.5-4.2h0L261.7,63.1z
	 M268.7,57.1h1.5v9.6h-1.5V57.1z"/>
<path class="st1" d="M262.4,57.1h1.6l3.6,9.6H266l-0.8-2.2h-4l-0.8,2.2h-1.6L262.4,57.1z M261.7,63.1h3l-1.5-4.2h0L261.7,63.1z
	 M268.7,57.1h1.5v9.6h-1.5V57.1z"/>
<path class="st0" d="M83.6,76.7c-1.3-0.9-3.2-1.6-5.9-2c-3.4-0.6-5.2-1.2-5.2-2.8c0-1.2,1.2-2.6,4.4-2.6c1.6,0,2.8,0.5,3.6,1.5
	c0.4,0.5,0.7,1.1,0.9,1.7c0.1,0.3,0.3,0.5,0.6,0.5l2.9,0c0.2,0,0.4-0.1,0.5-0.2c0.1-0.1,0.2-0.3,0.1-0.5c-0.5-2.9-2.2-4.5-2.8-4.9
	c-1.5-1.2-3.5-1.8-5.9-1.8c-2.5,0-4.6,0.6-6.2,1.8c-1.6,1.2-2.4,2.8-2.4,4.7c0,4.5,4.1,5.8,8.6,6.5c4.2,0.6,4.8,1.8,4.8,2.8
	c0,1.7-1.8,2.7-4.7,2.7c-0.5,0-1,0-1.4-0.1c0,0,0,0,0,0c-1.9-0.4-3.2-1.6-3.9-3.6c-0.1-0.2-0.3-0.4-0.6-0.4h-3.1
	c-0.2,0-0.4,0.1-0.5,0.2c-0.1,0.1-0.2,0.3-0.1,0.5c0.2,1.2,0.8,2.2,0.8,2.2l0,0c1.3,2.9,3.9,4.6,7.4,4.9c0,0,0,0,0,0
	c0.5,0.1,1,0.1,1.5,0.1c2.5,0,4.8-0.6,6.4-1.8c1.6-1.2,2.5-2.9,2.5-4.7C85.9,79.3,85.1,77.8,83.6,76.7z"/>
<path class="st0" d="M42.5,65.8h-3.7c-0.2,0-0.4,0.2-0.4,0.4v21.1c0,0.2,0.2,0.4,0.4,0.4h3.7c0.2,0,0.4-0.2,0.4-0.4V66.2
	C42.9,66,42.7,65.8,42.5,65.8z"/>
<path class="st0" d="M148.2,81.6c-0.2-0.2-0.4-0.3-0.7-0.3h-2.9c-0.4,0-0.7,0.2-0.8,0.6c-0.5,1.2-1.6,1.8-3.1,1.8h0
	c-2.2,0-3.4-1.2-3.4-3.4V69.9c0-0.1,0.1-0.2,0.2-0.2h8.7c0.5,0,0.9-0.4,0.9-0.9v-2.3c0-0.5-0.4-0.9-0.9-0.9h-8.7
	c-0.1,0-0.2-0.1-0.2-0.2V61c0-0.5-0.4-0.9-0.9-0.9h-2.8c-0.5,0-0.9,0.4-0.9,0.9v19.4c0,4.5,3.1,7.5,7.9,7.5l0,0h0c0,0,0,0,0,0
	c4,0,6.9-2.1,7.7-5.5C148.4,82.1,148.4,81.8,148.2,81.6z"/>
<path class="st0" d="M128,68.5c-1.8-1.8-4.1-2.8-6.6-2.8c-2.5,0-5,0.9-6.8,2.7c-1.9,1.8-2.9,4.2-2.9,6.8c0,0,0,0.9,0,2.1v10
	c0,0.2,0.2,0.4,0.4,0.4h3.7c0.2,0,0.4-0.2,0.4-0.4V75c0-1.3,0.5-2.6,1.5-3.6c1-0.9,2.3-1.4,3.6-1.4c2.6,0.1,4.9,2.3,4.9,4.8l0,0.2
	c0,0.1,0,0.2,0.1,0.3c0.1,0.1,0.2,0.1,0.3,0.1c0.8,0,2.8,0,3.7,0c0.2,0,0.4-0.2,0.4-0.4v0C130.8,72.6,129.8,70.2,128,68.5z"/>
<path class="st0" d="M65,79.9h-3.3c-0.1,0-0.3,0.1-0.4,0.2c0,0-0.1,0.1-0.1,0.1c-0.9,2.3-2.8,3.6-5.2,3.6c-1.8,0-3.4-0.7-4.6-2
	c-1.2-1.3-1.8-3.1-1.8-5.1c0-2,0.6-3.8,1.8-5.1c1.2-1.3,2.8-2,4.6-2c2.5,0,4.4,1.3,5.3,3.6c0.1,0.2,0.2,0.3,0.4,0.3H65
	c0.2,0,0.3-0.1,0.4-0.2c0.1-0.1,0.1-0.2,0.1-0.3c0-0.3-0.1-0.6-0.2-1c0-0.1,0-0.2,0-0.2c-0.5-1.5-1.4-2.7-1.5-2.7c0,0,0,0,0,0
	c-1.8-2.3-4.6-3.6-7.8-3.6c-3.1,0-5.9,1.2-7.8,3.3c-1.9,2-2.9,4.8-2.9,7.8c0,3,1,5.7,2.9,7.7c2,2.2,4.7,3.3,7.9,3.3
	c1.3,0,2.6-0.2,3.7-0.6c2.5-1,4.6-2.7,5.6-5.8c0.1-0.3,0.1-0.7,0.2-1c0-0.1,0-0.2-0.1-0.3C65.3,80,65.1,79.9,65,79.9z"/>
<path class="st0" d="M40.6,56.9c-1.8,0-3.3,1.5-3.3,3.3c0,1.8,1.5,3.3,3.3,3.3c1.8,0,3.3-1.5,3.3-3.3C43.9,58.4,42.5,56.9,40.6,56.9
	z"/>
<path class="st0" d="M25.1,56.9L25.1,56.9c-2.9,0-5.5,1.1-7.6,3.1c-0.2,0.2-0.5,0.6-0.5,0.6c-0.1,0.1-0.2,0.3-0.4,0.4
	c0,0,0,0.1,0,0.1c-1.4,1.8-2.3,4.1-2.4,6.4v19.8c0,0.1,0,0.2,0.1,0.2c0.1,0.1,0.2,0.2,0.3,0.2h3.7c0.2,0,0.4-0.2,0.4-0.4V77.2
	c0-0.1,0-0.1,0.1-0.1c0,0,0.1,0,0.1,0c1.8,1.3,4,2,6.2,2c1.7,0,3.3-0.4,4.7-1.1c3.7-1.8,6.2-5.6,6.2-10C36,61.8,31.1,56.9,25.1,56.9
	z M25.1,74.9c-3.6,0-6.6-3.1-6.6-6.9c0-3.8,3-6.9,6.6-6.9c3.6,0,6.6,3.1,6.6,6.9C31.7,71.8,28.8,74.9,25.1,74.9z"/>
<path class="st0" d="M109.1,76.6c-0.1-6.1-4.9-11-10.9-11c-6,0-10.9,5-10.9,11.1c0,4.9,3.1,9.1,7.5,10.5c0,0,0,0,0.1,0
	c0.1,0,0.1,0,0.2,0.1c1,0.3,2,0.5,3.1,0.5c2.7,0,5.3-1,6.6-2.6c0.1-0.1,0.2,0,0.2,0.1c0,0.8,0,1.7,0,1.9v0.1c0,0.2,0.2,0.4,0.4,0.4
	h3.3c0.2,0,0.4-0.2,0.4-0.4L109.1,76.6L109.1,76.6z M98.3,83.6c-3.7,0-6.7-3.1-6.7-6.8c0-3.8,3-6.8,6.7-6.8s6.7,3.1,6.7,6.8
	C105,80.5,102,83.6,98.3,83.6z"/>
<rect x="167.4" y="63.8" class="st2" width="41.7" height="45"/>
<text transform="matrix(1 0 0 1 167.3916 87.1091)" class="st0 st3 st4">X</text>
</svg>
