<svg width="256" height="56" viewBox="0 0 256 56" fill="none" xmlns="http://www.w3.org/2000/svg">
<path d="M14.216 11.76H18.952L7.784 54H3.048L14.216 11.76ZM26.728 11.76H31.432L20.264 54H15.56L26.728 11.76ZM5.288 23.536H33.992L32.584 28.144H3.88L5.288 23.536ZM1.96 37.552H30.664L29.256 42.16H0.552L1.96 37.552ZM38.957 18.672C38.957 15.216 39.853 12.6133 41.645 10.864C43.437 9.11466 45.5703 8.24 48.045 8.24C50.5623 8.24 53.9757 8.66666 58.285 9.52C62.5943 10.3733 65.837 10.8213 68.013 10.864C71.6397 10.1813 75.0957 9.34933 78.381 8.368C78.7223 9.47733 78.893 10.864 78.893 12.528C78.893 15.984 77.8903 18.5867 75.885 20.336C73.9223 22.0853 71.405 22.96 68.333 22.96C67.565 22.96 66.541 22.9173 65.261 22.832C62.9143 35.1627 61.741 42.0533 61.741 43.504C61.741 47.6427 62.381 50.736 63.661 52.784C61.101 54.704 58.4343 55.664 55.661 55.664C52.8877 55.664 50.9037 54.8747 49.709 53.296C48.5143 51.6747 47.917 49.2853 47.917 46.128C47.917 42.928 49.1543 34.4373 51.629 20.656C46.8077 21.296 42.7543 22.0213 39.469 22.832C39.1277 21.7653 38.957 20.3787 38.957 18.672ZM99.703 46.128L99.063 45.808C97.911 48.88 96.247 51.2907 94.071 53.04C91.9377 54.7467 89.5483 55.6 86.903 55.6C83.2763 55.6 80.375 54.2347 78.199 51.504C76.023 48.7733 74.935 45.1253 74.935 40.56C74.935 33.4773 77.303 27.5467 82.039 22.768C86.8177 17.9893 92.7483 15.6 99.831 15.6C101.666 15.6 103.351 15.7707 104.887 16.112C105.143 17.3067 105.292 18.352 105.335 19.248C107.468 17.8827 109.666 17.2 111.927 17.2C115.042 17.2 116.599 18.8853 116.599 22.256C116.599 23.4507 115.916 27.056 114.551 33.072C113.228 39.088 112.567 43.5467 112.567 46.448C112.567 49.3493 113.228 51.3547 114.551 52.464C112.162 54.5547 109.666 55.6 107.063 55.6C104.503 55.6 102.626 54.832 101.431 53.296C100.279 51.76 99.703 49.3707 99.703 46.128ZM86.967 37.424C86.967 39.5147 87.3937 41.136 88.247 42.288C89.143 43.3973 90.4017 43.952 92.023 43.952C93.6443 43.952 95.2443 43.3547 96.823 42.16C98.4017 40.9653 99.7243 39.3227 100.791 37.232C101.175 32.9227 102.007 27.824 103.287 21.936C98.9777 21.936 95.1803 23.4933 91.895 26.608C88.6097 29.7227 86.967 33.328 86.967 37.424ZM129.036 14.192L125.452 9.072C130.785 5.95733 134.988 4.4 138.06 4.4C139.809 4.4 141.047 4.76266 141.772 5.488C142.497 6.17066 142.86 7.49333 142.86 9.456C142.86 11.376 141.9 16.8373 139.98 25.84C138.103 34.8427 137.164 41.1573 137.164 44.784C137.164 48.4107 137.825 50.9707 139.148 52.464C136.161 54.5547 133.452 55.6 131.02 55.6C128.588 55.6 126.796 54.8107 125.644 53.232C124.535 51.6107 123.98 49.392 123.98 46.576C123.98 43.76 124.769 38 126.348 29.296C127.927 20.592 128.823 15.5573 129.036 14.192ZM153.341 14.192L149.757 9.072C155.09 5.95733 159.293 4.4 162.365 4.4C164.114 4.4 165.352 4.76266 166.077 5.488C166.802 6.17066 167.165 7.344 167.165 9.008C167.165 10.6293 166.888 12.912 166.333 15.856C165.821 18.8 165.117 22.2773 164.221 26.288C163.368 30.2987 162.749 33.52 162.365 35.952L166.397 32.368C166.781 32.0267 167.4 31.4933 168.253 30.768C169.149 30 169.768 29.4453 170.109 29.104C170.493 28.7627 171.005 28.2933 171.645 27.696C172.285 27.056 172.754 26.5227 173.053 26.096C173.352 25.6693 173.693 25.1787 174.077 24.624C174.674 23.6853 174.973 22.64 174.973 21.488C174.973 20.2933 174.802 19.248 174.461 18.352C177.49 16.5173 180.349 15.6 183.037 15.6C184.829 15.6 186.258 16.176 187.325 17.328C188.392 18.4373 188.925 20.0587 188.925 22.192C188.925 24.3253 187.944 26.48 185.981 28.656C184.061 30.7893 181.672 32.6667 178.813 34.288C180.136 38.6827 181.842 42.7147 183.933 46.384C186.024 50.0533 187.773 52.2507 189.181 52.976C187.474 54.7253 184.829 55.6 181.245 55.6C178.6 55.6 176.36 54.704 174.525 52.912C172.733 51.12 171.133 48.176 169.725 44.08L168.125 39.536L161.533 42.8C161.49 43.2693 161.469 43.9733 161.469 44.912C161.469 48.4533 162.13 50.9707 163.453 52.464C160.466 54.5547 157.757 55.6 155.325 55.6C152.893 55.6 151.101 54.8107 149.949 53.232C148.84 51.6107 148.285 49.392 148.285 46.576C148.285 43.76 149.074 38 150.653 29.296C152.232 20.592 153.128 15.5573 153.341 14.192ZM214.63 5.488C214.63 7.10933 213.776 8.51733 212.07 9.712C210.363 10.864 208.422 11.44 206.246 11.44C204.07 11.44 202.342 11.0133 201.062 10.16C199.824 9.30666 199.206 8.15466 199.206 6.704C199.206 4.74133 200.123 3.20533 201.958 2.096C203.792 0.986665 205.734 0.431999 207.782 0.431999C209.83 0.431999 211.472 0.858665 212.71 1.712C213.99 2.56533 214.63 3.824 214.63 5.488ZM202.15 55.6C199.504 55.6 197.584 54.9387 196.39 53.616C195.195 52.2933 194.598 50.288 194.598 47.6C194.598 44.8693 195.963 37.5947 198.694 25.776L195.11 20.4C200.443 17.2 204.646 15.6 207.718 15.6C209.467 15.6 210.704 15.984 211.43 16.752C212.155 17.4773 212.518 18.672 212.518 20.336C212.518 20.976 211.728 24.7307 210.15 31.6C208.571 38.4693 207.782 43.376 207.782 46.32C207.782 49.264 208.443 51.312 209.766 52.464C207.376 54.5547 204.838 55.6 202.15 55.6ZM236.434 55.6C230.589 55.6 226.066 54.0853 222.866 51.056C219.709 48.0267 218.13 43.9307 218.13 38.768C218.13 31.8987 220.477 26.3307 225.17 22.064C229.906 17.7547 235.837 15.6 242.962 15.6C246.93 15.6 249.938 16.496 251.986 18.288C254.034 20.0373 255.058 22.3627 255.058 25.264C255.058 29.232 253.117 32.5387 249.234 35.184C245.394 37.7867 239.442 39.1093 231.378 39.152C231.506 41.8827 232.125 44.0373 233.234 45.616C234.343 47.152 235.73 47.92 237.394 47.92C239.058 47.92 240.487 47.3653 241.682 46.256C242.919 45.1467 243.538 43.3333 243.538 40.816C249.767 40.816 252.882 42.288 252.882 45.232C252.882 47.7493 251.346 50.1173 248.274 52.336C245.202 54.512 241.255 55.6 236.434 55.6ZM241.874 23.088C239.698 23.088 237.693 24.176 235.858 26.352C234.066 28.528 232.765 31.088 231.954 34.032C236.221 33.6907 239.421 32.7307 241.554 31.152C243.73 29.5307 244.818 27.824 244.818 26.032C244.818 25.1787 244.541 24.4747 243.986 23.92C243.474 23.3653 242.77 23.088 241.874 23.088Z" fill="#C209C1"/>
</svg>
