<svg width="298" height="148" viewBox="0 0 298 148" fill="none" xmlns="http://www.w3.org/2000/svg">
<path d="M11.712 7.776H0.736V1.76H29.44V7.776H18.464V44H11.712V7.776ZM60.4175 25.824H41.8895V44H35.2015V1.76H41.8895V19.84H60.4175V1.76H67.0735V44H60.4175V25.824ZM75.264 1.76H100.864V7.776H81.952V19.904H100.544V25.76H81.952V37.984H100.864V44H75.264V1.76ZM144.175 20.864H165.551V23.264C165.551 26.2507 165.039 29.0453 164.015 31.648C162.991 34.2293 161.54 36.512 159.663 38.496C157.807 40.4587 155.609 41.9947 153.071 43.104C150.532 44.2133 147.727 44.768 144.655 44.768C141.54 44.768 138.681 44.2027 136.079 43.072C133.497 41.92 131.257 40.3413 129.359 38.336C127.481 36.3307 126.02 34.0053 124.975 31.36C123.951 28.7147 123.439 25.8773 123.439 22.848C123.439 19.84 123.951 17.0133 124.975 14.368C126.02 11.7227 127.481 9.39733 129.359 7.392C131.257 5.38667 133.497 3.81867 136.079 2.688C138.681 1.55733 141.54 0.991997 144.655 0.991997C146.937 0.991997 148.985 1.248 150.799 1.76C152.633 2.25067 154.265 2.92266 155.694 3.776C157.124 4.62933 158.372 5.6 159.439 6.688C160.505 7.75467 161.412 8.85333 162.159 9.984L155.951 13.12C154.799 11.4773 153.295 10.112 151.439 9.024C149.583 7.91466 147.321 7.36 144.655 7.36C142.585 7.36 140.676 7.76533 138.927 8.576C137.199 9.38667 135.695 10.5067 134.415 11.936C133.156 13.3653 132.175 15.0187 131.47 16.896C130.788 18.752 130.447 20.736 130.447 22.848C130.447 24.96 130.788 26.9547 131.47 28.832C132.175 30.7093 133.156 32.3627 134.415 33.792C135.695 35.2213 137.199 36.352 138.927 37.184C140.676 37.9947 142.585 38.4 144.655 38.4C146.596 38.4 148.356 38.0907 149.935 37.472C151.535 36.832 152.921 35.9573 154.095 34.848C155.268 33.7387 156.196 32.448 156.879 30.976C157.561 29.4827 157.956 27.8827 158.062 26.176H144.175V20.864ZM176.247 32.48C176.29 33.8667 176.62 35.1147 177.239 36.224C177.858 37.3333 178.764 38.208 179.959 38.848C181.175 39.4667 182.658 39.776 184.407 39.776C185.922 39.776 187.223 39.5733 188.311 39.168C189.42 38.7413 190.338 38.24 191.063 37.664C191.788 37.0667 192.322 36.512 192.663 36L195.703 40.128C195.042 41.024 194.21 41.824 193.207 42.528C192.204 43.232 190.956 43.776 189.463 44.16C187.991 44.5653 186.167 44.768 183.991 44.768C181.132 44.768 178.647 44.1813 176.535 43.008C174.423 41.8347 172.78 40.1813 171.607 38.048C170.455 35.9147 169.879 33.4187 169.879 30.56C169.879 28 170.412 25.696 171.479 23.648C172.546 21.5787 174.092 19.9467 176.119 18.752C178.167 17.5573 180.62 16.96 183.479 16.96C186.146 16.96 188.46 17.4933 190.423 18.56C192.386 19.6267 193.9 21.1627 194.967 23.168C196.055 25.152 196.599 27.552 196.599 30.368C196.599 30.5387 196.588 30.8907 196.567 31.424C196.567 31.9573 196.546 32.3093 196.503 32.48H176.247ZM190.199 27.488C190.178 26.8053 189.943 26.0267 189.495 25.152C189.068 24.2773 188.375 23.52 187.415 22.88C186.455 22.2187 185.175 21.888 183.575 21.888C181.932 21.888 180.599 22.208 179.575 22.848C178.551 23.4667 177.794 24.2133 177.303 25.088C176.812 25.9413 176.524 26.7413 176.439 27.488H190.199ZM218.13 16.96C219.901 16.96 221.618 17.3227 223.282 18.048C224.946 18.7733 226.311 19.936 227.378 21.536C228.466 23.1147 229.01 25.1733 229.01 27.712V44H222.13V28.96C222.13 26.592 221.565 24.8533 220.434 23.744C219.325 22.6133 217.885 22.048 216.114 22.048C214.941 22.048 213.821 22.3787 212.754 23.04C211.687 23.7013 210.813 24.5973 210.13 25.728C209.469 26.8587 209.138 28.16 209.138 29.632V44H202.29V17.728H209.138V22.144C209.33 21.4187 209.842 20.6613 210.674 19.872C211.527 19.0613 212.605 18.3787 213.906 17.824C215.207 17.248 216.615 16.96 218.13 16.96ZM26.4825 68.472C30.3105 68.472 33.627 68.9175 36.432 69.8085C39.27 70.6665 41.514 71.5905 43.164 72.5805C44.814 73.5375 45.804 74.1645 46.134 74.4615L40.9365 82.926C40.4415 82.497 39.5505 81.903 38.2635 81.144C37.0095 80.352 35.4585 79.6425 33.6105 79.0155C31.7955 78.3885 29.766 78.075 27.522 78.075C24.156 78.075 21.483 78.735 19.503 80.055C17.523 81.342 16.533 83.223 16.533 85.698C16.533 87.348 17.061 88.8 18.117 90.054C19.173 91.308 20.6745 92.4795 22.6215 93.5685C24.6015 94.6575 26.961 95.763 29.7 96.885C32.01 97.842 34.254 98.931 36.432 100.152C38.643 101.373 40.623 102.808 42.372 104.458C44.121 106.108 45.507 108.022 46.53 110.2C47.586 112.378 48.114 114.886 48.114 117.724C48.114 120.694 47.5035 123.334 46.2825 125.644C45.0615 127.921 43.3785 129.852 41.2335 131.436C39.0885 132.987 36.6135 134.175 33.8085 135C31.0365 135.792 28.0665 136.188 24.8985 136.188C20.7405 136.188 16.995 135.693 13.662 134.703C10.362 133.68 7.689 132.624 5.643 131.535C3.597 130.413 2.409 129.687 2.079 129.357L7.5735 120.496C7.9695 120.826 8.6955 121.321 9.7515 121.981C10.8405 122.608 12.177 123.285 13.761 124.011C15.345 124.704 17.094 125.298 19.008 125.793C20.955 126.255 22.968 126.486 25.047 126.486C29.04 126.486 32.0595 125.628 34.1055 123.912C36.1515 122.163 37.1745 119.919 37.1745 117.18C37.1745 115.101 36.5145 113.302 35.1945 111.784C33.9075 110.233 32.1255 108.831 29.8485 107.577C27.6045 106.323 25.047 105.085 22.176 103.864C19.239 102.577 16.5165 101.125 14.0085 99.5085C11.5335 97.8915 9.537 95.928 8.019 93.618C6.501 91.275 5.742 88.437 5.742 85.104C5.742 81.771 6.6825 78.867 8.5635 76.392C10.4775 73.884 13.002 71.937 16.137 70.551C19.272 69.165 22.7205 68.472 26.4825 68.472ZM106.186 137.921C108.067 137.921 109.717 137.706 111.136 137.277C112.588 136.848 113.743 136.386 114.601 135.891C115.492 135.429 115.987 135.116 116.086 134.95L120.046 142.128C119.188 143.316 117.588 144.537 115.245 145.791C112.935 147.045 109.915 147.672 106.186 147.672C103.843 147.672 101.83 147.408 100.147 146.88C98.497 146.352 96.946 145.742 95.494 145.049C94.075 144.356 92.5735 143.745 90.9895 143.217C89.4055 142.689 87.508 142.425 85.297 142.425C83.251 142.425 81.436 142.772 79.852 143.465C78.301 144.158 77.0635 144.851 76.1395 145.544C75.2155 146.237 74.704 146.649 74.605 146.781L69.9025 141.237C71.9815 139.191 74.44 137.508 77.278 136.188C80.149 134.901 83.482 134.257 87.277 134.257C89.917 134.257 92.227 134.554 94.207 135.149C96.22 135.776 98.167 136.386 100.048 136.98C101.929 137.607 103.975 137.921 106.186 137.921ZM66.2395 102.28C66.2395 106.768 67.18 110.844 69.061 114.507C70.942 118.137 73.5325 121.024 76.8325 123.169C80.1325 125.281 83.9275 126.337 88.2175 126.337C92.5735 126.337 96.385 125.281 99.652 123.169C102.952 121.024 105.526 118.137 107.374 114.507C109.255 110.844 110.196 106.768 110.196 102.28C110.196 97.7925 109.255 93.7335 107.374 90.1035C105.526 86.4735 102.952 83.6025 99.652 81.4905C96.385 79.3785 92.5735 78.3225 88.2175 78.3225C83.9275 78.3225 80.1325 79.3785 76.8325 81.4905C73.5325 83.6025 70.942 86.4735 69.061 90.1035C67.18 93.7335 66.2395 97.7925 66.2395 102.28ZM55.399 102.28C55.399 97.5285 56.224 93.1065 57.874 89.0145C59.557 84.8895 61.867 81.2925 64.804 78.2235C67.774 75.1545 71.2555 72.762 75.2485 71.046C79.2415 69.33 83.5645 68.472 88.2175 68.472C92.9365 68.472 97.276 69.33 101.236 71.046C105.229 72.762 108.711 75.1545 111.681 78.2235C114.651 81.2925 116.944 84.8895 118.561 89.0145C120.178 93.1065 120.987 97.5285 120.987 102.28C120.987 107.065 120.178 111.52 118.561 115.645C116.977 119.737 114.717 123.334 111.78 126.436C108.843 129.505 105.378 131.898 101.385 133.614C97.3915 135.33 93.0025 136.188 88.2175 136.188C83.3995 136.188 78.9775 135.33 74.9515 133.614C70.9585 131.898 67.4935 129.505 64.5565 126.436C61.6525 123.334 59.392 119.737 57.775 115.645C56.191 111.52 55.399 107.065 55.399 102.28ZM168.986 69.66H179.381V110.101C179.381 115.48 178.309 120.133 176.164 124.06C174.052 127.954 171.098 130.957 167.303 133.069C163.508 135.148 159.086 136.188 154.037 136.188C149.021 136.188 144.599 135.148 140.771 133.069C136.943 130.957 133.957 127.954 131.812 124.06C129.667 120.133 128.594 115.48 128.594 110.101V69.66H138.989V109.557C138.989 113.121 139.633 116.173 140.92 118.714C142.24 121.255 144.022 123.202 146.266 124.555C148.543 125.908 151.133 126.585 154.037 126.585C156.941 126.585 159.515 125.908 161.759 124.555C164.003 123.202 165.769 121.255 167.056 118.714C168.343 116.173 168.986 113.121 168.986 109.557V69.66ZM208.55 69.66H219.192L243.843 135H232.755L227.36 120.051H200.432L194.987 135H183.849L208.55 69.66ZM203.798 110.794H223.994L213.945 82.332H213.797L203.798 110.794ZM250.226 69.66H266.908C273.871 69.66 279.613 71.0625 284.134 73.8675C288.655 76.6395 292.021 80.484 294.232 85.401C296.443 90.318 297.548 95.9445 297.548 102.28C297.548 108.649 296.443 114.292 294.232 119.209C292.054 124.126 288.704 127.987 284.183 130.792C279.662 133.597 273.904 135 266.908 135H250.226V69.66ZM260.572 79.065V125.595H266.017C270.736 125.595 274.597 124.605 277.6 122.625C280.636 120.612 282.88 117.856 284.332 114.358C285.784 110.86 286.526 106.867 286.559 102.379C286.592 97.8915 285.883 93.8985 284.431 90.4005C282.979 86.8695 280.718 84.0975 277.649 82.0845C274.613 80.0715 270.736 79.065 266.017 79.065H260.572Z" fill="white"/>
<path d="M249.008 1.76H255.888L271.824 44H264.656L261.168 34.336H243.76L240.24 44H233.04L249.008 1.76ZM245.936 28.352H258.992L252.496 9.952H252.4L245.936 28.352ZM276.462 1.76H283.182V44H276.462V1.76Z" fill="white"/>
<path d="M249.008 1.76H255.888L271.824 44H264.656L261.168 34.336H243.76L240.24 44H233.04L249.008 1.76ZM245.936 28.352H258.992L252.496 9.952H252.4L245.936 28.352ZM276.462 1.76H283.182V44H276.462V1.76Z" fill="#000AFF" fill-opacity="0.2"/>
</svg>
